<?xml version="1.0" encoding="UTF-8" standalone="no"?>
<svg xmlns="http://www.w3.org/2000/svg"
     id="svg1"
     version="1.1"
     viewBox="0 0 1010 1010"
     height="1010px"
     width="1010px">
    <metadata>
        <rdf:RDF xmlns:cc="http://web.resource.org/cc/"
                 xmlns:rdf="http://www.w3.org/1999/02/22-rdf-syntax-ns#">
            <cc:work rdf:about="http://coderado.co">
                <cc:license>
                    <cc:permits rdf:resource="http://web.resource.org/cc/Reproduction"/>
                    <cc:permits rdf:resource="http://web.resource.org/cc/Distribution"/>
                    <cc:requires rdf:resource="http://web.resource.org/cc/Attribution"/>
                </cc:license>
            </cc:work>
        </rdf:RDF>
    </metadata>
    <path fill-rule="evenodd"
          d="M500 626 A 172 172, 0, 1, 1, 499.99 626 M500 716 A 124 124, 0, 1, 1, 499.9999 716"
          id="loop1"/>

    <path fill-rule="evenodd"
          d="M500 420 A 280 280, 0, 1, 1, 499.99 420 M500 537 A 219 219, 0, 1, 1, 499.9999 537"
          id="loop2"/>

    <path d="M 275.14004,443.14004 C 267.94671,450.33338 261.09639,457.86973 254.61574,465.72247 248.13509,473.57521 242.0241,481.74432 236.30941,490.20318 230.59472,498.66203 225.27633,507.41062 220.38088,516.42232 215.48544,525.43401 211.01294,534.7088 206.99002,544.22005 202.9671,553.7313 199.39376,563.479 196.29665,573.43653 193.19954,583.39405 190.57865,593.56139 188.46063,603.91191 186.34261,614.26243 184.72745,624.79612 183.6418,635.48635 182.55615,646.17658 182,657.02334 182,668 182,843.62655 324.37345,986 500,986 675.62655,986 818,843.62655 818,668 818,646.04668 815.77541,624.61294 811.53937,603.91191 807.30333,583.21087 801.05582,563.24255 793.00998,544.22005 784.96415,525.19755 775.11997,507.12089 763.69059,490.20318 752.26121,473.28547 739.24663,457.52671 724.85996,443.14004 717.66663,435.94671 700.50103,423.21186 691.23749,415.59482 683.38475,409.11417 626.80303,365.09641 613.06027,340.76802 603.16355,323.24816 601.54086,305.32364 601.9599,290.21452 602.36954,275.44426 611.18792,249.82523 614.39766,243.27199 618.49452,234.90755 626.88829,225.64823 632.8537,222.80986 634.98699,221.79483 637.66832,220.93751 643.68659,224.94969 649.70487,228.96188 675.81093,255.56095 708.64593,279.78679 719.40412,287.01369 733.81894,297.45598 742.35138,304.60034 751.75985,312.50755 760.78925,320.8658 769.40768,329.64257 778.02611,338.41934 786.23357,347.61465 793.99812,357.19597 801.76268,366.7773 809.08434,376.74464 815.93118,387.06551 822.77803,397.38638 829.15006,408.06076 835.01536,419.05616 840.88065,430.05156 846.23922,441.36797 851.05913,452.97289 855.87904,464.57781 860.1603,476.47124 863.87099,488.62067 867.58168,500.7701 870.7218,513.17554 873.25943,525.80447 875.79706,538.4334 877.73221,551.28583 879.03294,564.32925 880.33367,577.37268 881,590.6071 881,604 881,818.28648 710.42049,992 500,992 289.57951,992 119,818.28648 119,604 119,577.21419 121.6653,551.06233 126.74057,525.80447 131.81583,500.5466 139.30104,476.18273 148.94087,452.97289 158.58069,429.76305 170.37513,407.70724 184.06882,387.06551 197.76251,366.42378 213.35546,347.19612 230.59232,329.64257 247.82918,312.08902 271.34887,293.30928 291.14188,277.68009 306.80214,266.40891 341.4367,234.57893 347.45498,230.56674 353.47325,226.55456 356.15458,227.41188 358.28787,228.42691 364.25328,231.26528 372.64705,240.5246 376.74391,248.88904 379.95365,255.44228 388.77203,281.06131 389.18167,295.83157 389.60071,310.94069 387.97802,328.86521 378.0813,346.38507 364.33854,370.71346 298.5825,422.01431 298.5825,422.01431 289.86973,429.09639 282.33338,435.94671 275.14004,443.14004 Z"
          id="open_loop1"/>

    <path d="M 700,180 C 612.8459,139.21008 616.50725,48.517481 658.86518,4.539266 658.86518,4.539266 660.50073,2.472084 663.71604,2.472084 666.93136,2.472084 666.74222,0.95899538 683.76447,14.009385 700.78672,27.059775 721.40255,42.568934 739.93789,54.106235 739.93789,54.106235 798.32097,92.815147 807.60478,101.65013 813.93369,106.6428 820.36138,111.96455 826.32324,117.13661 832.75826,122.73616 838.94222,128.39415 844.6656,133.87879 847.66025,136.75123 850.62313,139.66448 853.55339,142.61818 947.32158,237.13652 1000,365.33089 1000,499 1000,632.66911 947.32158,760.86348 853.55339,855.38182 759.7852,949.90015 632.60824,1003 500,1003 367.39176,1003 240.2148,949.90015 146.44661,855.38182 52.67842,760.86348 0,632.66911 0,499 0,365.33089 52.67842,237.13652 146.44661,142.61818 158.16763,130.80339 170.41067,119.63576 183.12107,109.13811 195.83148,98.640465 207.67186,88.812795 221.26236,79.677919 234.85285,70.543043 241.76789,65.998409 258.09565,55.243407 278.59745,42.568934 299.21328,27.059775 316.23553,14.009385 333.25778,0.95899538 333.06864,2.472084 336.28396,2.472084 339.49927,2.472084 341.13482,4.539266 341.13482,4.539266 383.49275,48.517481 387.1541,139.21008 300,180 121.86092,271.59313 29.888232,472.28977 77.352926,665.82893 124.8172,859.36637 299.4056,995.54157 500,995.54157 700.5944,995.54157 875.1828,859.36637 922.64707,665.82893 970.11177,472.28977 878.13908,271.59313 700,180"
          id="open_loop2"/>

    <circle id="dot1"
            r="44"
            cy="88"
            cx="500"/>

    <circle id="dot2"
            r="64"
            cy="244"
            cx="500"/>
</svg>
